<svg xmlns="http://www.w3.org/2000/svg" width="22.51" height="22.51" viewBox="0 0 22.51 22.51">
  <g id="Group_346" data-name="Group 346" transform="translate(-2.5 -2.49)">
    <path id="Path_91" data-name="Path 91" d="M7,22.75c.262.2.534.377.811.55.026.016.047.037.079.052l.037.016A11.247,11.247,0,0,0,13.758,25a10.926,10.926,0,0,0,1.125-.058,11.334,11.334,0,0,0,1.507-.256,11.128,11.128,0,0,0,3.219-1.34c.005,0,.005-.005.01-.005a.072.072,0,0,1,.021-.016c.3-.183.586-.372.869-.581l.005-.005A11.252,11.252,0,0,0,13.758,2.49,11.274,11.274,0,0,0,2.5,13.748,11.153,11.153,0,0,0,7,22.75Zm7.714.633a9.526,9.526,0,0,1-1.931,0,9.085,9.085,0,0,1-1.3-.22,9.58,9.58,0,0,1-2.093-.775,5.5,5.5,0,0,1,8.248-.55,5.27,5.27,0,0,1,.476.55A9.739,9.739,0,0,1,14.715,23.383ZM13.752,4.065a9.682,9.682,0,0,1,5.809,17.428c-.031.026-.068.047-.1.073a7.171,7.171,0,0,0-.712-.837,7.064,7.064,0,0,0-10.7.837c-.031-.026-.068-.047-.1-.073H7.938A9.685,9.685,0,0,1,13.752,4.065Z"/>
    <path id="Path_92" data-name="Path 92" d="M19.472,23.444A4.972,4.972,0,1,0,14.5,18.472,4.976,4.976,0,0,0,19.472,23.444Zm0-8.374a3.4,3.4,0,1,1-3.4,3.4A3.409,3.409,0,0,1,19.472,15.07Z" transform="translate(-5.72 -5.248)"/>
  </g>
</svg>
