<svg id="Group_2" data-name="Group 2" xmlns="http://www.w3.org/2000/svg" width="874.98" height="750" viewBox="0 0 874.98 750">
  <defs>
    <style>
      .cls-1 {
        fill: #fff;
      }
    </style>
  </defs>
  <path id="path70" class="cls-1" d="M476.884,565.262c-14.469-14.595-43.024-24.94-63.6-37.855-22.658-14.2-35.528-31.728-36.306-49.44-1.414-32.266,35.571-61.754,66.4-90.668s56.786-62.532,32.869-92.837c-15.232-19.287-48.7-34.231-68.525-52.589-38.428-35.543-21.074-78.419,5.954-116.163S477.1,50.276,474.493,10.5c-.75-11.267-4.78-22.3-10.127-33.255H-18.5v750H357.469c4.073-22.548,32.36-46.026,61.425-65.465,43.039-28.774,89.542-64.654,57.988-96.514" transform="translate(387.721 22.759)"/>
  <rect id="Rectangle_2" data-name="Rectangle 2" class="cls-1" width="676" height="750"/>
</svg>
